<svg width="224" height="52" viewBox="0 0 224 52" fill="none" xmlns="http://www.w3.org/2000/svg">
<path d="M223.698 43.514C223.698 46.0573 222.954 48.0248 221.467 49.4164C219.979 50.7601 218.084 51.4319 215.78 51.4319C213.477 51.4319 211.581 50.7601 210.094 49.4164C208.606 48.0248 207.862 46.0573 207.862 43.514V33.2928H215.06V43.8739C215.06 44.5937 215.3 44.9536 215.78 44.9536C216.26 44.9536 216.5 44.5937 216.5 43.8739V35.5242C216.5 33.9886 216.092 32.4771 215.276 30.9895C214.509 29.4539 213.645 27.8703 212.685 26.2388C211.533 24.3673 210.43 22.4238 209.374 20.4084C208.366 18.3449 207.862 16.1615 207.862 13.8581V8.09972C207.862 5.6044 208.606 3.66094 210.094 2.26931C211.629 0.877694 213.549 0.181885 215.852 0.181885C218.155 0.181885 220.027 0.877694 221.467 2.26931C222.954 3.61295 223.698 5.55642 223.698 8.09972V16.0895H216.5V7.73982C216.5 7.02002 216.26 6.66011 215.78 6.66011C215.3 6.66011 215.06 7.02002 215.06 7.73982V13.8581C215.06 15.3937 215.444 16.9293 216.212 18.4649C217.028 19.9525 217.94 21.5121 218.947 23.1436C220.099 25.0151 221.179 26.9826 222.186 29.046C223.194 31.0614 223.698 33.2209 223.698 35.5242V43.514Z" fill="#2A2922"/>
<path d="M205.836 7.092H202.956V21.9199H205.476V28.3982H202.956V44.5218H206.196V51H195.758V0.61377H205.836V7.092Z" fill="#2A2922"/>
<path d="M193.962 7.092H190.363V51H183.165V7.092H179.566V0.61377H193.962V7.092Z" fill="#2A2922"/>
<path d="M177.693 51H168.695L163.729 12.1306H163.585L164.737 28.3262L165.096 51H158.258V0.61377H167.256L172.222 39.4831H172.366L171.215 23.2876L170.855 0.61377H177.693V51Z" fill="#2A2922"/>
<path d="M156.088 7.092H153.208V21.9199H155.728V28.3982H153.208V44.5218H156.448V51H146.01V0.61377H156.088V7.092Z" fill="#2A2922"/>
<path d="M136.636 29.7658C136.636 29.046 136.396 28.6861 135.916 28.6861H135.197V51H127.998V0.61377H135.988C138.628 0.61377 140.595 1.18961 141.891 2.3413C143.186 3.44499 143.834 5.2685 143.834 7.8118V18.033C143.834 19.0887 143.81 20.0245 143.762 20.8402C143.714 21.656 143.57 22.3758 143.33 22.9997C143.138 23.5755 142.826 24.0554 142.395 24.4393C142.011 24.8232 141.483 25.1351 140.811 25.375V25.519C142.203 25.9508 143.042 26.7426 143.33 27.8943C143.666 29.046 143.834 30.7015 143.834 32.861V44.3778C143.834 45.1936 143.834 45.8894 143.834 46.4652C143.882 46.9931 143.93 47.497 143.978 47.9768C144.026 48.4567 144.098 48.9126 144.194 49.3445C144.338 49.7763 144.506 50.2802 144.698 50.856V51H137.284C137.044 50.0403 136.876 49.1285 136.78 48.2647C136.684 47.353 136.636 46.0813 136.636 44.4498V29.7658ZM136.636 8.1717C136.636 7.4519 136.396 7.092 135.916 7.092H135.197V22.2079H135.916C136.396 22.2079 136.636 21.848 136.636 21.1282V8.1717Z" fill="#2A2922"/>
<path d="M126.559 51H118.641L118.209 38.9793H116.194L115.762 51H108.564L112.523 0.61377H122.6L126.559 51ZM117.993 32.5011L117.489 17.2412L117.273 8.53161H117.129L116.913 17.2412L116.41 32.5011H117.993Z" fill="#2A2922"/>
<path d="M108.513 22.9277C108.513 25.471 107.865 27.3185 106.57 28.4702C105.274 29.5739 103.283 30.1257 100.595 30.1257H99.8755V51H92.6775V0.61377H100.667C103.307 0.61377 105.274 1.18961 106.57 2.3413C107.865 3.44499 108.513 5.2685 108.513 7.8118V22.9277ZM101.315 8.1717C101.315 7.4519 101.075 7.092 100.595 7.092H99.8755V23.6475H100.595C101.075 23.6475 101.315 23.2876 101.315 22.5678V8.1717Z" fill="#2A2922"/>
<path d="M90.6384 43.514C90.6384 46.0573 89.8946 48.0248 88.407 49.4164C86.9194 50.7601 85.0239 51.4319 82.7206 51.4319C80.4172 51.4319 78.5217 50.7601 77.0341 49.4164C75.5465 48.0248 74.8027 46.0573 74.8027 43.514V33.2928H82.0008V43.8739C82.0008 44.5937 82.2407 44.9536 82.7206 44.9536C83.2004 44.9536 83.4404 44.5937 83.4404 43.8739V35.5242C83.4404 33.9886 83.0325 32.4771 82.2167 30.9895C81.4489 29.4539 80.5851 27.8703 79.6254 26.2388C78.4737 24.3673 77.37 22.4238 76.3143 20.4084C75.3066 18.3449 74.8027 16.1615 74.8027 13.8581V8.09972C74.8027 5.6044 75.5465 3.66094 77.0341 2.26931C78.5697 0.877694 80.4892 0.181885 82.7925 0.181885C85.0959 0.181885 86.9674 0.877694 88.407 2.26931C89.8946 3.61295 90.6384 5.55642 90.6384 8.09972V16.0895H83.4404V7.73982C83.4404 7.02002 83.2004 6.66011 82.7206 6.66011C82.2407 6.66011 82.0008 7.02002 82.0008 7.73982V13.8581C82.0008 15.3937 82.3847 16.9293 83.1525 18.4649C83.9682 19.9525 84.88 21.5121 85.8877 23.1436C87.0394 25.0151 88.1191 26.9826 89.1268 29.046C90.1345 31.0614 90.6384 33.2209 90.6384 35.5242V43.514Z" fill="#2A2922"/>
<path d="M72.7142 51H63.7166L58.75 12.1306H58.606L59.7577 28.3262L60.1176 51H53.2795V0.61377H62.277L67.2437 39.4831H67.3876L66.2359 23.2876L65.876 0.61377H72.7142V51Z" fill="#2A2922"/>
<path d="M51.8399 51H43.922L43.4902 38.9793H41.4747L41.0428 51H33.8448L37.8037 0.61377H47.881L51.8399 51ZM43.2742 32.5011L42.7703 17.2412L42.5544 8.53161H42.4104L42.1945 17.2412L41.6906 32.5011H43.2742Z" fill="#2A2922"/>
<path d="M25.1903 29.7658C25.1903 29.046 24.9504 28.6861 24.4705 28.6861H23.7507V51H16.5527V0.61377H24.5425C27.1818 0.61377 29.1492 1.18961 30.4449 2.3413C31.7405 3.44499 32.3883 5.2685 32.3883 7.8118V18.033C32.3883 19.0887 32.3644 20.0245 32.3164 20.8402C32.2684 21.656 32.1244 22.3758 31.8845 22.9997C31.6925 23.5755 31.3806 24.0554 30.9487 24.4393C30.5648 24.8232 30.037 25.1351 29.3652 25.375V25.519C30.7568 25.9508 31.5966 26.7426 31.8845 27.8943C32.2204 29.046 32.3883 30.7015 32.3883 32.861V44.3778C32.3883 45.1936 32.3883 45.8894 32.3883 46.4652C32.4363 46.9931 32.4843 47.497 32.5323 47.9768C32.5803 48.4567 32.6523 48.9126 32.7482 49.3445C32.8922 49.7763 33.0602 50.2802 33.2521 50.856V51H25.8381C25.5982 50.0403 25.4302 49.1285 25.3343 48.2647C25.2383 47.353 25.1903 46.0813 25.1903 44.4498V29.7658ZM25.1903 8.1717C25.1903 7.4519 24.9504 7.092 24.4705 7.092H23.7507V22.2079H24.4705C24.9504 22.2079 25.1903 21.848 25.1903 21.1282V8.1717Z" fill="#2A2922"/>
<path d="M14.756 7.092H11.157V51H3.95894V7.092H0.359924V0.61377H14.756V7.092Z" fill="#2A2922"/>
</svg>
