<svg width="600" height="260" viewBox="0 0 600 260" fill="none" xmlns="http://www.w3.org/2000/svg">
<path d="M114.033 42.2721C119.135 28.0463 139.254 28.0462 144.356 42.2721L148.071 52.6304C151.283 61.5832 161.511 65.8189 170.111 61.7574L180.046 57.066C193.7 50.6179 207.923 64.8131 201.503 78.48L196.752 88.5926C192.717 97.1798 196.942 107.376 205.867 110.594L216.361 114.378C230.553 119.494 230.553 139.566 216.361 144.683L205.867 148.466C196.942 151.684 192.717 161.881 196.752 170.468L201.503 180.58C207.923 194.247 193.7 208.442 180.046 201.994L170.111 197.303C161.511 193.242 151.283 197.477 148.072 206.43L144.356 216.788C139.254 231.014 119.135 231.014 114.033 216.788L110.318 206.43C107.107 197.477 96.8783 193.242 88.2779 197.303L78.3435 201.994C64.6895 208.442 50.4659 194.247 56.8866 180.58L61.6375 170.468C65.6718 161.881 61.4473 151.684 52.5219 148.466L42.0283 144.683C27.8359 139.566 27.8359 119.494 42.0283 114.378L52.5219 110.594C61.4473 107.376 65.6718 97.1798 61.6375 88.5925L56.8866 78.48C50.4659 64.8131 64.6895 50.6179 78.3435 57.066L88.2779 61.7574C96.8783 65.8189 107.107 61.5832 110.318 52.6305L114.033 42.2721Z" fill="#FF4609"/>
<path d="M230.138 42.2721C235.241 28.0463 255.359 28.0462 260.462 42.2721L264.177 52.6304C267.388 61.5832 277.616 65.8189 286.217 61.7574L296.151 57.066C309.805 50.6179 324.029 64.8131 317.608 78.48L312.857 88.5926C308.823 97.1798 313.047 107.376 321.973 110.594L332.466 114.378C346.659 119.494 346.659 139.566 332.466 144.683L321.973 148.466C313.047 151.684 308.823 161.881 312.857 170.468L317.608 180.58C324.029 194.247 309.805 208.442 296.151 201.994L286.217 197.303C277.616 193.242 267.388 197.477 264.177 206.43L260.462 216.788C255.359 231.014 235.241 231.014 230.138 216.788L226.423 206.43C223.212 197.477 212.984 193.242 204.383 197.303L194.449 201.994C180.795 208.442 166.571 194.247 172.992 180.58L177.743 170.468C181.777 161.881 177.553 151.684 168.627 148.466L158.134 144.683C143.941 139.566 143.941 119.494 158.134 114.378L168.627 110.594C177.553 107.376 181.777 97.1798 177.743 88.5925L172.992 78.48C166.571 64.8131 180.795 50.6179 194.449 57.066L204.383 61.7574C212.984 65.8189 223.212 61.5832 226.423 52.6305L230.138 42.2721Z" fill="#FF4609"/>
<path d="M343.564 42.2721C348.667 28.0463 368.785 28.0462 373.888 42.2721L377.603 52.6304C380.814 61.5832 391.042 65.8189 399.643 61.7574L409.577 57.066C423.231 50.6179 437.455 64.8131 431.034 78.48L426.283 88.5926C422.249 97.1798 426.473 107.376 435.399 110.594L445.892 114.378C460.085 119.494 460.085 139.566 445.892 144.683L435.399 148.466C426.473 151.684 422.249 161.881 426.283 170.468L431.034 180.58C437.455 194.247 423.231 208.442 409.577 201.994L399.643 197.303C391.042 193.242 380.814 197.477 377.603 206.43L373.888 216.788C368.785 231.014 348.667 231.014 343.564 216.788L339.849 206.43C336.638 197.477 326.41 193.242 317.809 197.303L307.875 201.994C294.221 208.442 279.997 194.247 286.418 180.58L291.169 170.468C295.203 161.881 290.979 151.684 282.053 148.466L271.56 144.683C257.367 139.566 257.367 119.494 271.56 114.378L282.053 110.594C290.979 107.376 295.203 97.1798 291.169 88.5925L286.418 78.48C279.997 64.8131 294.221 50.6179 307.875 57.066L317.809 61.7574C326.41 65.8189 336.638 61.5832 339.849 52.6305L343.564 42.2721Z" fill="#FF4609"/>
<path d="M455.642 42.2721C460.745 28.0463 480.863 28.0462 485.966 42.2721L489.681 52.6304C492.892 61.5832 503.12 65.8189 511.721 61.7574L521.655 57.066C535.309 50.6179 549.533 64.8131 543.112 78.48L538.361 88.5926C534.327 97.1798 538.551 107.376 547.477 110.594L557.97 114.378C572.163 119.494 572.163 139.566 557.97 144.683L547.477 148.466C538.551 151.684 534.327 161.881 538.361 170.468L543.112 180.58C549.533 194.247 535.309 208.442 521.655 201.994L511.721 197.303C503.12 193.242 492.892 197.477 489.681 206.43L485.966 216.788C480.863 231.014 460.745 231.014 455.642 216.788L451.927 206.43C448.716 197.477 438.488 193.242 429.887 197.303L419.953 201.994C406.299 208.442 392.075 194.247 398.496 180.58L403.247 170.468C407.281 161.881 403.057 151.684 394.131 148.466L383.638 144.683C369.445 139.566 369.445 119.494 383.638 114.378L394.131 110.594C403.057 107.376 407.281 97.1798 403.247 88.5925L398.496 78.48C392.075 64.8131 406.299 50.6179 419.953 57.066L429.887 61.7574C438.488 65.8189 448.716 61.5832 451.927 52.6305L455.642 42.2721Z" fill="#FF4609"/>
<path d="M462.422 122.667V121.115C463.002 121.115 463.381 120.977 463.558 120.699C463.734 120.447 463.823 119.955 463.823 119.223H462.422V116.346H465.375V118.768C465.375 120.106 465.147 121.09 464.693 121.721C464.264 122.352 463.507 122.667 462.422 122.667Z" fill="white"/>
<path d="M452.819 119.601C451.229 119.601 449.828 119.261 448.617 118.579C447.431 117.873 446.51 116.926 445.854 115.74C445.198 114.529 444.87 113.191 444.87 111.728C444.87 110.213 445.198 108.863 445.854 107.677C446.51 106.491 447.431 105.557 448.617 104.876C449.828 104.169 451.229 103.816 452.819 103.816C454.434 103.816 455.835 104.169 457.021 104.876C458.232 105.557 459.166 106.491 459.822 107.677C460.478 108.863 460.806 110.213 460.806 111.728C460.806 113.191 460.478 114.529 459.822 115.74C459.166 116.926 458.232 117.873 457.021 118.579C455.835 119.261 454.434 119.601 452.819 119.601ZM452.819 117.33C454.409 117.33 455.683 116.813 456.642 115.778C457.601 114.718 458.081 113.368 458.081 111.728C458.081 110.062 457.601 108.712 456.642 107.677C455.683 106.642 454.409 106.125 452.819 106.125C451.254 106.125 449.992 106.642 449.034 107.677C448.075 108.712 447.595 110.062 447.595 111.728C447.595 113.368 448.075 114.718 449.034 115.778C449.992 116.813 451.254 117.33 452.819 117.33Z" fill="white"/>
<path d="M432.753 126.074C431.668 126.074 430.57 125.948 429.46 125.696C428.349 125.443 427.378 125.078 426.545 124.598L427.567 122.327C428.374 122.806 429.195 123.16 430.027 123.387C430.885 123.614 431.743 123.727 432.601 123.727C434.166 123.727 435.314 123.336 436.046 122.554C436.803 121.772 437.182 120.661 437.182 119.223V116.459L437.712 116.043C437.106 116.926 436.286 117.62 435.251 118.125C434.217 118.604 433.094 118.844 431.882 118.844C430.292 118.844 428.942 118.503 427.832 117.822C426.721 117.115 425.889 116.194 425.333 115.059C424.778 113.923 424.501 112.686 424.501 111.349C424.501 109.986 424.778 108.737 425.333 107.601C425.889 106.466 426.721 105.557 427.832 104.876C428.942 104.169 430.292 103.816 431.882 103.816C433.094 103.816 434.217 104.068 435.251 104.573C436.286 105.052 437.106 105.734 437.712 106.617L437.371 106.693V104.194H442.444V106.314H440.021V118.996C440.021 120.535 439.731 121.822 439.15 122.857C438.595 123.917 437.775 124.712 436.69 125.242C435.63 125.797 434.317 126.074 432.753 126.074ZM432.374 116.497C433.384 116.497 434.318 116.321 435.176 115.967C436.059 115.614 436.803 115.084 437.409 114.377L437.22 115.475V107.299L437.409 108.321C436.803 107.589 436.059 107.046 435.176 106.693C434.318 106.34 433.384 106.163 432.374 106.163C430.86 106.163 429.624 106.617 428.665 107.526C427.706 108.409 427.226 109.683 427.226 111.349C427.226 112.964 427.706 114.226 428.665 115.134C429.624 116.043 430.86 116.497 432.374 116.497Z" fill="white"/>
<path d="M414.538 119.601C412.645 119.601 411.042 119.261 409.73 118.579C408.443 117.873 407.472 116.926 406.815 115.74C406.184 114.529 405.869 113.191 405.869 111.728C405.869 110.239 406.184 108.901 406.815 107.715C407.472 106.529 408.393 105.582 409.579 104.876C410.765 104.169 412.165 103.816 413.781 103.816C415.396 103.816 416.784 104.169 417.945 104.876C419.105 105.582 419.989 106.529 420.594 107.715C421.225 108.876 421.541 110.213 421.541 111.728V112.825H407.535V110.63H418.891C418.891 109.797 418.676 109.027 418.247 108.321C417.844 107.614 417.251 107.046 416.468 106.617C415.711 106.163 414.815 105.936 413.781 105.936C412.695 105.936 411.762 106.176 410.979 106.655C410.197 107.109 409.591 107.728 409.162 108.51C408.759 109.267 408.557 110.087 408.557 110.97V111.728C408.557 113.418 409.061 114.768 410.071 115.778C411.106 116.787 412.62 117.292 414.613 117.292C415.673 117.292 416.695 117.103 417.68 116.724C418.689 116.346 419.522 115.841 420.178 115.21L421.389 117.216C420.557 117.948 419.535 118.529 418.323 118.958C417.112 119.387 415.85 119.601 414.538 119.601Z" fill="white"/>
<path d="M392.681 119.601C391.091 119.601 389.842 119.185 388.933 118.352C388.025 117.519 387.571 116.232 387.571 114.491V106.314H384.769V104.194H390.334V113.961C390.334 115.096 390.586 115.929 391.091 116.459C391.621 116.964 392.466 117.216 393.627 117.216C394.435 117.216 395.268 117.065 396.126 116.762C397.009 116.434 397.93 115.854 398.889 115.021L398.132 116.119V106.314H395.52V104.194H400.933V117.103H403.356V119.223H398.321V117.027L399.04 116.913C398.107 117.822 397.072 118.503 395.936 118.958C394.826 119.387 393.741 119.601 392.681 119.601Z" fill="white"/>
<path d="M374.618 125.696V123.576H376.132C377.091 123.576 377.773 123.349 378.176 122.895C378.58 122.465 378.782 121.746 378.782 120.737V106.314H375.754V104.194H381.583V120.472C381.583 122.213 381.18 123.513 380.372 124.371C379.564 125.254 378.328 125.696 376.662 125.696H374.618ZM380.183 101.393C379.552 101.393 379.072 101.216 378.744 100.863C378.416 100.485 378.252 100.03 378.252 99.5004C378.252 98.9452 378.416 98.491 378.744 98.1376C379.072 97.7591 379.552 97.5698 380.183 97.5698C380.814 97.5698 381.293 97.7591 381.621 98.1376C381.949 98.491 382.113 98.9452 382.113 99.5004C382.113 100.03 381.937 100.485 381.583 100.863C381.255 101.216 380.788 101.393 380.183 101.393Z" fill="white"/>
<path d="M345.191 119.223V117.103H347.803V106.314H345.001V104.194H350.452V106.39L349.96 106.541C350.919 105.633 351.954 104.952 353.064 104.497C354.175 104.043 355.272 103.816 356.358 103.816C357.998 103.816 359.247 104.232 360.105 105.065C360.989 105.898 361.43 107.185 361.43 108.926V117.103H363.853V119.223H356.017V117.103H358.629V109.456C358.629 108.321 358.364 107.5 357.834 106.996C357.329 106.466 356.509 106.201 355.373 106.201C354.541 106.201 353.695 106.352 352.837 106.655C352.004 106.958 351.096 107.526 350.112 108.358L350.604 107.299V117.103H353.026V119.223H345.191Z" fill="white"/>
<path d="M335.871 119.601C333.979 119.601 332.376 119.261 331.064 118.579C329.777 117.873 328.805 116.926 328.149 115.74C327.518 114.529 327.203 113.191 327.203 111.728C327.203 110.239 327.518 108.901 328.149 107.715C328.805 106.529 329.726 105.582 330.912 104.876C332.098 104.169 333.499 103.816 335.114 103.816C336.729 103.816 338.117 104.169 339.278 104.876C340.439 105.582 341.322 106.529 341.928 107.715C342.559 108.876 342.874 110.213 342.874 111.728V112.825H328.868V110.63H340.225C340.225 109.797 340.01 109.027 339.581 108.321C339.177 107.614 338.584 107.046 337.802 106.617C337.045 106.163 336.149 105.936 335.114 105.936C334.029 105.936 333.095 106.176 332.313 106.655C331.531 107.109 330.925 107.728 330.496 108.51C330.092 109.267 329.89 110.087 329.89 110.97V111.728C329.89 113.418 330.395 114.768 331.404 115.778C332.439 116.787 333.953 117.292 335.947 117.292C337.007 117.292 338.029 117.103 339.013 116.724C340.023 116.346 340.855 115.841 341.512 115.21L342.723 117.216C341.89 117.948 340.868 118.529 339.657 118.958C338.445 119.387 337.184 119.601 335.871 119.601Z" fill="white"/>
<path d="M301.729 119.601C299.963 119.601 298.587 119.159 297.603 118.276C296.644 117.368 296.165 116.232 296.165 114.869C296.165 113.507 296.657 112.409 297.641 111.576C298.625 110.718 300.177 110.289 302.297 110.289C303.105 110.289 303.9 110.352 304.682 110.478C305.464 110.604 306.045 110.743 306.423 110.895L305.704 111.425V110.554C305.704 109.923 305.452 109.431 304.947 109.078C304.442 108.699 303.698 108.51 302.714 108.51C301.906 108.51 301.099 108.623 300.291 108.85C299.509 109.052 298.752 109.368 298.02 109.797L296.468 105.406C297.628 104.8 298.903 104.346 300.291 104.043C301.679 103.74 303.105 103.589 304.568 103.589C307.193 103.589 309.136 104.182 310.398 105.368C311.685 106.529 312.329 108.232 312.329 110.478V115.059H313.843V119.223H306.272V116.648L307.294 117.33C306.436 117.961 305.591 118.503 304.758 118.958C303.925 119.387 302.916 119.601 301.729 119.601ZM304.039 115.967C304.518 115.967 304.947 115.853 305.326 115.626C305.704 115.399 306.02 115.147 306.272 114.869L305.704 116.27V112.825L306.386 113.885C306.133 113.734 305.818 113.62 305.439 113.544C305.086 113.443 304.695 113.393 304.266 113.393C303.761 113.393 303.357 113.507 303.054 113.734C302.751 113.961 302.6 114.289 302.6 114.718C302.6 115.122 302.739 115.437 303.016 115.664C303.294 115.866 303.635 115.967 304.039 115.967Z" fill="white"/>
<path d="M285.151 119.223V115.059H286.855V108.131H284.962V103.967H293.479V115.059H294.993V119.223H285.151ZM290.148 102.567C289.012 102.567 288.104 102.239 287.423 101.582C286.741 100.926 286.4 100.056 286.4 98.9704C286.4 97.8853 286.741 97.0272 287.423 96.3963C288.104 95.7402 289.012 95.4121 290.148 95.4121C291.284 95.4121 292.18 95.7402 292.836 96.3963C293.517 97.0272 293.858 97.8853 293.858 98.9704C293.858 100.056 293.517 100.926 292.836 101.582C292.18 102.239 291.284 102.567 290.148 102.567Z" fill="white"/>
<path d="M277.082 119.601C275.29 119.601 273.725 119.273 272.388 118.617C271.05 117.935 270.016 116.989 269.284 115.778C268.552 114.541 268.186 113.103 268.186 111.462C268.186 109.822 268.501 108.421 269.132 107.261C269.788 106.074 270.646 105.166 271.706 104.535C272.792 103.904 273.978 103.589 275.265 103.589C276.047 103.589 276.754 103.715 277.385 103.967C278.015 104.194 278.533 104.535 278.937 104.989C279.34 105.418 279.58 105.923 279.656 106.503H279.126V103.967H283.668V110.213H279.694C279.138 109.078 278.306 108.51 277.195 108.51C276.489 108.51 275.883 108.775 275.378 109.305C274.874 109.809 274.621 110.554 274.621 111.538C274.621 112.472 274.874 113.229 275.378 113.809C275.908 114.39 276.754 114.68 277.915 114.68C278.495 114.68 279.113 114.554 279.769 114.301C280.426 114.024 281.069 113.633 281.7 113.128L283.971 117.216C283.113 117.973 282.079 118.566 280.867 118.995C279.681 119.399 278.419 119.601 277.082 119.601Z" fill="white"/>
<path d="M254.818 119.601C253.051 119.601 251.676 119.159 250.692 118.276C249.733 117.368 249.253 116.232 249.253 114.869C249.253 113.507 249.745 112.409 250.73 111.576C251.714 110.718 253.266 110.289 255.386 110.289C256.193 110.289 256.988 110.352 257.771 110.478C258.553 110.604 259.133 110.743 259.512 110.895L258.793 111.425V110.554C258.793 109.923 258.54 109.431 258.036 109.078C257.531 108.699 256.786 108.51 255.802 108.51C254.995 108.51 254.187 108.623 253.379 108.85C252.597 109.052 251.84 109.368 251.108 109.797L249.556 105.406C250.717 104.8 251.991 104.346 253.379 104.043C254.767 103.74 256.193 103.589 257.657 103.589C260.282 103.589 262.225 104.182 263.487 105.368C264.774 106.529 265.417 108.232 265.417 110.478V115.059H266.931V119.223H259.36V116.648L260.383 117.33C259.524 117.961 258.679 118.503 257.846 118.958C257.013 119.387 256.004 119.601 254.818 119.601ZM257.127 115.967C257.607 115.967 258.036 115.853 258.414 115.626C258.793 115.399 259.108 115.147 259.36 114.869L258.793 116.27V112.825L259.474 113.885C259.222 113.734 258.906 113.62 258.528 113.544C258.174 113.443 257.783 113.393 257.354 113.393C256.849 113.393 256.446 113.507 256.143 113.734C255.84 113.961 255.689 114.289 255.689 114.718C255.689 115.122 255.827 115.437 256.105 115.664C256.383 115.866 256.723 115.967 257.127 115.967Z" fill="white"/>
<path d="M234.173 119.223V115.059H235.877V108.131H233.984V103.967H241.933V109.078L241.593 108.434C242.375 106.693 243.233 105.456 244.167 104.724C245.126 103.967 246.097 103.589 247.082 103.589C247.99 103.589 248.697 103.803 249.202 104.232L247.12 109.91C246.791 109.582 246.451 109.368 246.097 109.267C245.769 109.141 245.467 109.078 245.189 109.078C244.609 109.078 244.091 109.254 243.637 109.607C243.208 109.936 242.829 110.466 242.501 111.197V115.059H244.773V119.223H234.173Z" fill="white"/>
<path d="M226.104 119.601C224.312 119.601 222.747 119.273 221.41 118.617C220.072 117.935 219.038 116.989 218.306 115.778C217.574 114.541 217.208 113.103 217.208 111.462C217.208 109.822 217.523 108.421 218.154 107.261C218.811 106.074 219.669 105.166 220.728 104.535C221.814 103.904 223 103.589 224.287 103.589C225.069 103.589 225.776 103.715 226.407 103.967C227.038 104.194 227.555 104.535 227.959 104.989C228.362 105.418 228.602 105.923 228.678 106.503H228.148V103.967H232.691V110.213H228.716C228.161 109.078 227.328 108.51 226.217 108.51C225.511 108.51 224.905 108.775 224.4 109.305C223.896 109.809 223.643 110.554 223.643 111.538C223.643 112.472 223.896 113.229 224.4 113.809C224.93 114.39 225.776 114.68 226.937 114.68C227.517 114.68 228.135 114.554 228.791 114.301C229.448 114.024 230.091 113.633 230.722 113.128L232.993 117.216C232.135 117.973 231.101 118.566 229.889 118.995C228.703 119.399 227.441 119.601 226.104 119.601Z" fill="white"/>
<path d="M206.843 119.601C205.076 119.601 203.524 119.273 202.187 118.617C200.875 117.935 199.84 116.989 199.083 115.778C198.351 114.566 197.985 113.166 197.985 111.576C197.985 109.961 198.351 108.56 199.083 107.374C199.84 106.188 200.875 105.267 202.187 104.611C203.524 103.929 205.076 103.589 206.843 103.589C208.609 103.589 210.149 103.929 211.461 104.611C212.799 105.267 213.833 106.188 214.565 107.374C215.322 108.56 215.701 109.961 215.701 111.576C215.701 113.166 215.322 114.566 214.565 115.778C213.833 116.989 212.799 117.935 211.461 118.617C210.149 119.273 208.609 119.601 206.843 119.601ZM206.843 114.68C207.575 114.68 208.155 114.402 208.584 113.847C209.039 113.292 209.266 112.535 209.266 111.576C209.266 110.617 209.039 109.872 208.584 109.343C208.155 108.787 207.575 108.51 206.843 108.51C206.111 108.51 205.518 108.787 205.064 109.343C204.635 109.872 204.42 110.617 204.42 111.576C204.42 112.535 204.635 113.292 205.064 113.847C205.518 114.402 206.111 114.68 206.843 114.68Z" fill="white"/>
<path d="M165.71 119.223V115.059H167.413V108.131H165.521V103.967H173.47V106.503L172.94 106.541C173.899 105.507 174.934 104.762 176.044 104.308C177.155 103.828 178.315 103.589 179.527 103.589C180.839 103.589 181.899 103.879 182.707 104.459C183.514 105.014 184.069 105.809 184.372 106.844L183.501 106.541C184.46 105.507 185.495 104.762 186.606 104.308C187.716 103.828 188.877 103.589 190.088 103.589C191.653 103.589 192.902 104.03 193.836 104.914C194.769 105.797 195.236 107.16 195.236 109.002V115.059H196.751V119.223H187.098V115.059H188.612V110.705C188.612 109.898 188.473 109.33 188.195 109.002C187.943 108.674 187.527 108.51 186.946 108.51C186.467 108.51 185.987 108.636 185.508 108.888C185.028 109.141 184.637 109.481 184.334 109.91L184.448 107.412C184.498 107.664 184.536 107.955 184.561 108.283C184.587 108.611 184.599 108.85 184.599 109.002V115.059H185.924V119.223H176.536V115.059H178.05V110.705C178.05 109.898 177.912 109.33 177.634 109.002C177.382 108.674 176.965 108.51 176.385 108.51C175.905 108.51 175.413 108.636 174.908 108.888C174.404 109.141 174 109.481 173.697 109.91L174.038 108.51V115.059H175.363V119.223H165.71Z" fill="white"/>
<path d="M157.207 119.601C155.315 119.601 153.662 119.273 152.248 118.617C150.86 117.961 149.775 117.027 148.993 115.816C148.236 114.579 147.857 113.128 147.857 111.462C147.857 109.898 148.211 108.522 148.917 107.336C149.624 106.15 150.608 105.229 151.87 104.573C153.132 103.917 154.595 103.589 156.261 103.589C157.901 103.589 159.315 103.917 160.501 104.573C161.712 105.229 162.646 106.15 163.302 107.336C163.958 108.522 164.286 109.923 164.286 111.538V112.712H151.226V109.872H157.964C157.964 109.343 157.889 108.888 157.737 108.51C157.586 108.131 157.371 107.854 157.094 107.677C156.816 107.475 156.476 107.374 156.072 107.374C155.693 107.374 155.352 107.475 155.05 107.677C154.772 107.879 154.558 108.169 154.406 108.548C154.255 108.926 154.179 109.406 154.179 109.986V111.538C154.179 112.598 154.494 113.393 155.125 113.923C155.756 114.428 156.665 114.68 157.851 114.68C158.633 114.68 159.39 114.592 160.122 114.415C160.854 114.213 161.548 113.885 162.204 113.431L164.324 117.443C163.516 118.074 162.457 118.592 161.144 118.995C159.832 119.399 158.52 119.601 157.207 119.601Z" fill="white"/>
<path d="M120.473 119.223V114.68H122.366V101.696H120.473V97.1533H133.457C136.158 97.1533 138.429 97.595 140.271 98.4782C142.139 99.3615 143.552 100.623 144.511 102.264C145.495 103.904 145.987 105.86 145.987 108.131C145.987 110.478 145.508 112.484 144.549 114.15C143.615 115.79 142.215 117.052 140.347 117.935C138.505 118.793 136.208 119.223 133.457 119.223H120.473ZM129.937 114.68H132.776C134.013 114.68 135.022 114.44 135.804 113.961C136.612 113.481 137.205 112.762 137.584 111.803C137.987 110.819 138.189 109.595 138.189 108.131C138.189 106.667 137.987 105.469 137.584 104.535C137.205 103.576 136.612 102.869 135.804 102.415C135.022 101.936 134.013 101.696 132.776 101.696H129.937V114.68Z" fill="white"/>
<path d="M452.176 160.234C450.41 160.234 448.858 159.906 447.52 159.25C446.208 158.568 445.173 157.622 444.416 156.411C443.684 155.199 443.319 153.799 443.319 152.209C443.319 150.594 443.684 149.193 444.416 148.007C445.173 146.821 446.208 145.9 447.52 145.244C448.858 144.562 450.41 144.221 452.176 144.221C453.943 144.221 455.482 144.562 456.795 145.244C458.132 145.9 459.167 146.821 459.899 148.007C460.656 149.193 461.034 150.594 461.034 152.209C461.034 153.799 460.656 155.199 459.899 156.411C459.167 157.622 458.132 158.568 456.795 159.25C455.482 159.906 453.943 160.234 452.176 160.234ZM452.176 155.313C452.908 155.313 453.489 155.035 453.918 154.48C454.372 153.925 454.599 153.168 454.599 152.209C454.599 151.25 454.372 150.505 453.918 149.975C453.489 149.42 452.908 149.143 452.176 149.143C451.445 149.143 450.852 149.42 450.397 149.975C449.968 150.505 449.754 151.25 449.754 152.209C449.754 153.168 449.968 153.925 450.397 154.48C450.852 155.035 451.445 155.313 452.176 155.313Z" fill="white"/>
<path d="M428.938 160.234C427.701 160.234 426.603 159.919 425.644 159.288C424.711 158.632 423.979 157.71 423.449 156.524C422.919 155.313 422.654 153.875 422.654 152.209C422.654 150.543 422.919 149.117 423.449 147.931C423.979 146.745 424.711 145.837 425.644 145.206C426.603 144.55 427.701 144.222 428.938 144.222C429.972 144.222 430.957 144.436 431.89 144.865C432.849 145.294 433.707 145.988 434.464 146.947L433.783 147.288V141.95H431.89V137.786H440.408V155.692H442.111V159.856H434.351V156.827L434.464 157.509C433.707 158.468 432.849 159.162 431.89 159.591C430.957 160.02 429.972 160.234 428.938 160.234ZM431.55 155.313C431.928 155.313 432.332 155.212 432.761 155.01C433.215 154.808 433.632 154.468 434.01 153.988L433.783 156.146V148.613L434.01 150.468C433.632 149.988 433.215 149.647 432.761 149.446C432.332 149.244 431.928 149.143 431.55 149.143C430.793 149.143 430.187 149.42 429.733 149.976C429.304 150.505 429.089 151.25 429.089 152.209C429.089 153.193 429.304 153.963 429.733 154.518C430.187 155.048 430.793 155.313 431.55 155.313Z" fill="white"/>
<path d="M400.73 159.855V155.691H402.433V148.764H400.54V144.6H408.49V147.136L407.96 147.174C408.944 146.139 409.991 145.395 411.102 144.941C412.237 144.461 413.423 144.221 414.66 144.221C416.225 144.221 417.486 144.663 418.445 145.546C419.404 146.43 419.884 147.792 419.884 149.635V155.691H421.398V159.855H411.556V155.691H413.259V151.338C413.259 150.531 413.108 149.963 412.805 149.635C412.528 149.307 412.099 149.143 411.518 149.143C411.013 149.143 410.496 149.269 409.966 149.521C409.461 149.773 409.045 150.114 408.717 150.543L409.058 149.143V155.691H410.572V159.855H400.73Z" fill="white"/>
<path d="M387.475 160.234C385.709 160.234 384.333 159.792 383.349 158.909C382.39 158 381.911 156.865 381.911 155.502C381.911 154.139 382.403 153.042 383.387 152.209C384.371 151.351 385.923 150.922 388.043 150.922C388.851 150.922 389.645 150.985 390.428 151.111C391.21 151.237 391.791 151.376 392.169 151.527L391.45 152.057V151.187C391.45 150.556 391.198 150.064 390.693 149.71C390.188 149.332 389.444 149.143 388.459 149.143C387.652 149.143 386.844 149.256 386.037 149.483C385.254 149.685 384.497 150.001 383.765 150.43L382.213 146.038C383.374 145.433 384.649 144.979 386.037 144.676C387.425 144.373 388.851 144.221 390.314 144.221C392.939 144.221 394.882 144.814 396.144 146.001C397.431 147.161 398.074 148.865 398.074 151.111V155.691H399.589V159.855H392.018V157.281L393.04 157.963C392.182 158.594 391.336 159.136 390.504 159.59C389.671 160.019 388.661 160.234 387.475 160.234ZM389.784 156.6C390.264 156.6 390.693 156.486 391.071 156.259C391.45 156.032 391.765 155.78 392.018 155.502L391.45 156.903V153.458L392.131 154.518C391.879 154.366 391.563 154.253 391.185 154.177C390.832 154.076 390.44 154.026 390.011 154.026C389.507 154.026 389.103 154.139 388.8 154.366C388.497 154.594 388.346 154.922 388.346 155.351C388.346 155.754 388.485 156.07 388.762 156.297C389.04 156.499 389.38 156.6 389.784 156.6Z" fill="white"/>
<path d="M349.862 159.855V155.691H351.566V148.764H349.673V144.6H357.623V147.136L357.093 147.174C358.052 146.139 359.086 145.395 360.197 144.941C361.307 144.461 362.468 144.221 363.679 144.221C364.992 144.221 366.052 144.512 366.859 145.092C367.667 145.647 368.222 146.442 368.525 147.477L367.654 147.174C368.613 146.139 369.648 145.395 370.758 144.941C371.869 144.461 373.029 144.221 374.241 144.221C375.805 144.221 377.055 144.663 377.988 145.546C378.922 146.43 379.389 147.792 379.389 149.635V155.691H380.903V159.855H371.25V155.691H372.764V151.338C372.764 150.531 372.626 149.963 372.348 149.635C372.096 149.307 371.679 149.143 371.099 149.143C370.619 149.143 370.14 149.269 369.66 149.521C369.181 149.773 368.79 150.114 368.487 150.543L368.6 148.045C368.651 148.297 368.689 148.587 368.714 148.915C368.739 149.243 368.752 149.483 368.752 149.635V155.691H370.077V159.855H360.689V155.691H362.203V151.338C362.203 150.531 362.064 149.963 361.787 149.635C361.534 149.307 361.118 149.143 360.537 149.143C360.058 149.143 359.566 149.269 359.061 149.521C358.556 149.773 358.153 150.114 357.85 150.543L358.19 149.143V155.691H359.515V159.855H349.862Z" fill="white"/>
<path d="M326.606 159.856V155.692H328.309V141.95H326.416V137.786H334.934V155.692H336.637V159.856H326.606Z" fill="white"/>
<path d="M313.541 160.234C311.774 160.234 310.399 159.792 309.414 158.909C308.455 158 307.976 156.865 307.976 155.502C307.976 154.139 308.468 153.042 309.452 152.209C310.436 151.351 311.989 150.922 314.108 150.922C314.916 150.922 315.711 150.985 316.493 151.111C317.276 151.237 317.856 151.376 318.235 151.527L317.515 152.057V151.187C317.515 150.556 317.263 150.064 316.758 149.71C316.253 149.332 315.509 149.143 314.525 149.143C313.717 149.143 312.91 149.256 312.102 149.483C311.32 149.685 310.563 150.001 309.831 150.43L308.279 146.038C309.44 145.433 310.714 144.979 312.102 144.676C313.49 144.373 314.916 144.221 316.38 144.221C319.004 144.221 320.947 144.814 322.209 146.001C323.496 147.161 324.14 148.865 324.14 151.111V155.691H325.654V159.855H318.083V157.281L319.105 157.963C318.247 158.594 317.402 159.136 316.569 159.59C315.736 160.019 314.727 160.234 313.541 160.234ZM315.85 156.6C316.329 156.6 316.758 156.486 317.137 156.259C317.515 156.032 317.831 155.78 318.083 155.502L317.515 156.903V153.458L318.197 154.518C317.944 154.366 317.629 154.253 317.25 154.177C316.897 154.076 316.506 154.026 316.077 154.026C315.572 154.026 315.168 154.139 314.865 154.366C314.563 154.594 314.411 154.922 314.411 155.351C314.411 155.754 314.55 156.07 314.828 156.297C315.105 156.499 315.446 156.6 315.85 156.6Z" fill="white"/>
<path d="M284.256 160.234C283.044 160.234 281.984 159.969 281.076 159.439C280.193 158.909 279.499 158.165 278.994 157.206C278.489 156.221 278.237 155.073 278.237 153.761C278.237 152.07 278.552 150.531 279.183 149.143C279.839 147.729 280.786 146.594 282.022 145.736C283.284 144.878 284.823 144.449 286.64 144.449C287.801 144.449 288.849 144.663 289.782 145.092C290.716 145.496 291.461 146.051 292.016 146.758L291.713 147.023L292.054 144.827H294.666L292.886 156.032C292.785 156.714 292.811 157.168 292.962 157.395C293.139 157.622 293.505 157.736 294.06 157.736H295.12L294.779 159.856H293C291.789 159.856 290.956 159.54 290.502 158.909C290.047 158.278 289.896 157.433 290.047 156.373L290.199 155.464L290.502 156.108C289.921 157.445 289.05 158.468 287.89 159.174C286.754 159.881 285.543 160.234 284.256 160.234ZM284.937 157.811C286.022 157.811 287.082 157.458 288.117 156.751C289.151 156.045 289.984 155.01 290.615 153.647L290.312 154.669L291.41 147.704L291.448 148.386C290.968 147.931 290.338 147.565 289.555 147.288C288.773 147.01 287.965 146.871 287.133 146.871C285.77 146.871 284.621 147.174 283.688 147.78C282.779 148.36 282.098 149.155 281.644 150.165C281.189 151.174 280.962 152.31 280.962 153.572C280.962 154.909 281.303 155.957 281.984 156.714C282.691 157.445 283.675 157.811 284.937 157.811Z" fill="white"/>
<path d="M273.233 159.855C271.996 159.855 271.151 159.553 270.697 158.947C270.242 158.316 270.104 157.408 270.28 156.221L271.757 146.947H268.955L269.258 144.827H274.861L273.119 155.994C273.018 156.6 273.031 157.042 273.157 157.319C273.283 157.597 273.662 157.736 274.293 157.736H275.353L275.05 159.855H273.233ZM273.157 141.95L275.239 136.613H277.813L274.709 141.95H273.157Z" fill="white"/>
<path d="M250.12 159.856L252.164 146.947H249.363L249.665 144.827H255.116L254.435 149.029L254.17 148.348C255.028 147.086 256.025 146.127 257.161 145.471C258.296 144.789 259.52 144.449 260.833 144.449C262.397 144.449 263.571 144.853 264.353 145.66C265.161 146.468 265.426 147.679 265.148 149.294L264.012 155.994C263.911 156.6 263.924 157.042 264.05 157.319C264.202 157.597 264.593 157.736 265.224 157.736H266.246L265.905 159.856H264.126C262.889 159.856 262.044 159.553 261.59 158.947C261.135 158.316 261.009 157.408 261.211 156.221L262.271 149.824C262.448 148.739 262.321 147.969 261.892 147.515C261.489 147.035 260.807 146.796 259.848 146.796C258.738 146.796 257.691 147.136 256.706 147.818C255.747 148.474 254.902 149.446 254.17 150.733L254.662 148.878L252.883 159.856H250.12Z" fill="white"/>
<path d="M235.718 160.234C234.506 160.234 233.446 159.969 232.538 159.439C231.654 158.909 230.96 158.165 230.456 157.206C229.951 156.221 229.699 155.073 229.699 153.761C229.699 152.07 230.014 150.531 230.645 149.143C231.301 147.729 232.248 146.594 233.484 145.736C234.746 144.878 236.285 144.449 238.102 144.449C239.263 144.449 240.311 144.663 241.244 145.092C242.178 145.496 242.923 146.051 243.478 146.758L243.175 147.023L243.516 144.827H246.128L244.348 156.032C244.247 156.714 244.273 157.168 244.424 157.395C244.601 157.622 244.967 157.736 245.522 157.736H246.582L246.241 159.856H244.462C243.251 159.856 242.418 159.54 241.964 158.909C241.509 158.278 241.358 157.433 241.509 156.373L241.661 155.464L241.964 156.108C241.383 157.445 240.512 158.468 239.352 159.174C238.216 159.881 237.005 160.234 235.718 160.234ZM236.399 157.811C237.484 157.811 238.544 157.458 239.579 156.751C240.613 156.045 241.446 155.01 242.077 153.647L241.774 154.669L242.872 147.704L242.91 148.386C242.43 147.931 241.799 147.565 241.017 147.288C240.235 147.01 239.427 146.871 238.594 146.871C237.232 146.871 236.083 147.174 235.15 147.78C234.241 148.36 233.56 149.155 233.106 150.165C232.651 151.174 232.424 152.31 232.424 153.572C232.424 154.909 232.765 155.957 233.446 156.714C234.153 157.445 235.137 157.811 236.399 157.811Z" fill="white"/>
<path d="M215.94 160.234C214.729 160.234 213.669 159.969 212.76 159.439C211.877 158.909 211.183 158.165 210.678 157.206C210.174 156.222 209.921 155.073 209.921 153.761C209.921 152.07 210.237 150.531 210.868 149.143C211.524 147.729 212.47 146.594 213.707 145.736C214.968 144.878 216.508 144.449 218.325 144.449C219.486 144.449 220.533 144.663 221.467 145.092C222.401 145.496 223.107 146.013 223.587 146.644L223.208 147.061L224.344 139.906H221.58L221.921 137.786H227.448L224.571 156.032C224.47 156.714 224.508 157.168 224.684 157.395C224.861 157.622 225.214 157.736 225.744 157.736H226.842L226.501 159.856H224.684C223.473 159.856 222.64 159.54 222.186 158.909C221.732 158.278 221.58 157.433 221.732 156.373L221.883 155.464L222.186 156.108C221.606 157.445 220.735 158.468 219.574 159.174C218.438 159.881 217.227 160.234 215.94 160.234ZM216.621 157.811C217.707 157.811 218.766 157.458 219.801 156.751C220.836 156.045 221.669 155.01 222.3 153.647L221.997 154.669L223.095 147.704L223.132 148.386C222.653 147.931 222.022 147.565 221.24 147.288C220.457 147.01 219.65 146.871 218.817 146.871C217.454 146.871 216.306 147.174 215.372 147.78C214.464 148.36 213.782 149.155 213.328 150.165C212.874 151.174 212.647 152.31 212.647 153.572C212.647 154.909 212.987 155.957 213.669 156.714C214.375 157.445 215.36 157.811 216.621 157.811Z" fill="white"/>
<path d="M196.163 160.234C194.951 160.234 193.891 159.969 192.983 159.439C192.099 158.909 191.405 158.165 190.901 157.206C190.396 156.221 190.144 155.073 190.144 153.761C190.144 152.07 190.459 150.531 191.09 149.143C191.746 147.729 192.693 146.594 193.929 145.736C195.191 144.878 196.73 144.449 198.547 144.449C199.708 144.449 200.756 144.663 201.689 145.092C202.623 145.496 203.368 146.051 203.923 146.758L203.62 147.023L203.961 144.827H206.573L204.793 156.032C204.692 156.714 204.718 157.168 204.869 157.395C205.046 157.622 205.412 157.736 205.967 157.736H207.027L206.686 159.856H204.907C203.696 159.856 202.863 159.54 202.409 158.909C201.954 158.278 201.803 157.433 201.954 156.373L202.106 155.464L202.409 156.108C201.828 157.445 200.957 158.468 199.797 159.174C198.661 159.881 197.45 160.234 196.163 160.234ZM196.844 157.811C197.929 157.811 198.989 157.458 200.024 156.751C201.058 156.045 201.891 155.01 202.522 153.647L202.219 154.669L203.317 147.704L203.355 148.386C202.875 147.931 202.245 147.565 201.462 147.288C200.68 147.01 199.872 146.871 199.039 146.871C197.677 146.871 196.528 147.174 195.595 147.78C194.686 148.36 194.005 149.155 193.551 150.165C193.096 151.174 192.869 152.31 192.869 153.572C192.869 154.909 193.21 155.957 193.891 156.714C194.598 157.445 195.582 157.811 196.844 157.811Z" fill="white"/>
<path d="M176.385 160.234C175.174 160.234 174.114 159.969 173.205 159.439C172.322 158.909 171.628 158.165 171.123 157.206C170.619 156.222 170.366 155.073 170.366 153.761C170.366 152.07 170.682 150.531 171.313 149.143C171.969 147.729 172.915 146.594 174.152 145.736C175.413 144.878 176.953 144.449 178.77 144.449C179.931 144.449 180.978 144.663 181.912 145.092C182.846 145.496 183.552 146.013 184.032 146.644L183.653 147.061L184.789 139.906H182.025L182.366 137.786H187.893L185.016 156.032C184.915 156.714 184.953 157.168 185.129 157.395C185.306 157.622 185.659 157.736 186.189 157.736H187.287L186.946 159.856H185.129C183.918 159.856 183.085 159.54 182.631 158.909C182.177 158.278 182.025 157.433 182.177 156.373L182.328 155.464L182.631 156.108C182.051 157.445 181.18 158.468 180.019 159.174C178.883 159.881 177.672 160.234 176.385 160.234ZM177.066 157.811C178.152 157.811 179.211 157.458 180.246 156.751C181.281 156.045 182.114 155.01 182.745 153.647L182.442 154.669L183.54 147.704L183.577 148.386C183.098 147.931 182.467 147.565 181.685 147.288C180.902 147.01 180.095 146.871 179.262 146.871C177.899 146.871 176.751 147.174 175.817 147.78C174.909 148.36 174.227 149.155 173.773 150.165C173.319 151.174 173.092 152.31 173.092 153.572C173.092 154.909 173.432 155.957 174.114 156.714C174.82 157.445 175.805 157.811 177.066 157.811Z" fill="white"/>
<path d="M156.338 160.234C154.799 160.234 153.625 159.843 152.818 159.06C152.035 158.253 151.783 157.029 152.061 155.389L153.423 146.947H150.622L150.963 144.827H156.565L154.937 154.783C154.736 155.893 154.849 156.688 155.278 157.168C155.707 157.647 156.389 157.887 157.322 157.887C158.458 157.887 159.505 157.559 160.464 156.903C161.448 156.221 162.294 155.237 163.001 153.95L162.584 155.237L164.25 144.827H167.051L165.272 155.956C165.171 156.587 165.183 157.042 165.31 157.319C165.436 157.597 165.814 157.736 166.445 157.736H167.505L167.164 159.855H165.385C164.149 159.855 163.303 159.54 162.849 158.909C162.42 158.278 162.281 157.433 162.433 156.373L162.508 155.729L163.001 156.335C162.168 157.597 161.171 158.568 160.01 159.25C158.874 159.906 157.65 160.234 156.338 160.234Z" fill="white"/>
<path d="M145.77 159.855C144.533 159.855 143.688 159.553 143.233 158.947C142.779 158.316 142.64 157.408 142.817 156.221L144.293 146.947H141.492L141.795 144.827H147.397L145.656 155.994C145.555 156.6 145.568 157.042 145.694 157.319C145.82 157.597 146.199 157.736 146.829 157.736H147.889L147.587 159.855H145.77ZM146.64 142.026C146.06 142.026 145.618 141.862 145.315 141.534C145.012 141.206 144.861 140.777 144.861 140.247C144.861 139.692 145.038 139.212 145.391 138.808C145.77 138.405 146.274 138.203 146.905 138.203C147.486 138.203 147.927 138.379 148.23 138.733C148.533 139.061 148.684 139.49 148.684 140.02C148.684 140.55 148.508 141.016 148.154 141.42C147.801 141.824 147.296 142.026 146.64 142.026Z" fill="white"/>
<path d="M133.059 160.272C131.57 160.272 130.257 159.982 129.122 159.401C128.011 158.821 127.141 158.001 126.51 156.941C125.904 155.881 125.601 154.632 125.601 153.193C125.601 151.603 125.917 150.152 126.548 148.84C127.204 147.502 128.163 146.442 129.425 145.66C130.687 144.853 132.201 144.449 133.967 144.449C135.481 144.449 136.819 144.752 137.98 145.357C139.141 145.963 139.973 146.834 140.478 147.969L138.585 149.521C138.182 148.587 137.589 147.893 136.806 147.439C136.049 146.985 135.115 146.758 134.005 146.758C132.794 146.758 131.759 147.048 130.901 147.629C130.068 148.184 129.425 148.953 128.97 149.938C128.516 150.897 128.289 151.982 128.289 153.193C128.289 154.682 128.731 155.856 129.614 156.714C130.497 157.546 131.696 157.963 133.21 157.963C134.245 157.963 135.179 157.761 136.011 157.357C136.869 156.953 137.563 156.449 138.093 155.843L139.305 157.774C138.548 158.556 137.614 159.174 136.503 159.628C135.418 160.057 134.27 160.272 133.059 160.272Z" fill="white"/>
</svg>
